<svg width="15" height="15" viewBox="0 0 15 15" fill="none" xmlns="http://www.w3.org/2000/svg">
<g clip-path="url(#clip0_982_113)">
<path fill-rule="evenodd" clip-rule="evenodd" d="M7.49995 0.876953C5.74342 0.876953 4.05884 1.57473 2.81678 2.81678C1.57473 4.05884 0.876953 5.74342 0.876953 7.49995C0.876953 9.25648 1.57473 10.9411 2.81678 12.1831C4.05884 13.4252 5.74342 14.123 7.49995 14.123C9.25648 14.123 10.9411 13.4252 12.1831 12.1831C13.4252 10.9411 14.123 9.25648 14.123 7.49995C14.123 5.74342 13.4252 4.05884 12.1831 2.81678C10.9411 1.57473 9.25648 0.876953 7.49995 0.876953ZM1.82695 7.49995C1.82695 5.99538 2.42464 4.55243 3.48854 3.48854C4.55243 2.42464 5.99538 1.82695 7.49995 1.82695C9.00453 1.82695 10.4475 2.42464 11.5114 3.48854C12.5753 4.55243 13.173 5.99538 13.173 7.49995C13.173 9.00453 12.5753 10.4475 11.5114 11.5114C10.4475 12.5753 9.00453 13.173 7.49995 13.173C5.99538 13.173 4.55243 12.5753 3.48854 11.5114C2.42464 10.4475 1.82695 9.00453 1.82695 7.49995ZM5.03695 9.21395C5.00002 9.15863 4.95241 9.11124 4.89693 9.07454C4.84145 9.03785 4.7792 9.0126 4.71383 9.00026C4.64847 8.98793 4.5813 8.98876 4.51626 9.00271C4.45122 9.01666 4.38962 9.04345 4.33506 9.0815C4.2805 9.11956 4.23409 9.16812 4.19853 9.22434C4.16298 9.28056 4.139 9.34331 4.128 9.40891C4.117 9.47452 4.1192 9.54166 4.13448 9.6064C4.14975 9.67114 4.17779 9.73218 4.21695 9.78595C4.58549 10.3151 5.0765 10.7473 5.64814 11.0458C6.21978 11.3442 6.8551 11.5 7.49995 11.5C8.85995 11.5 10.06 10.821 10.783 9.78595C10.8556 9.67714 10.8827 9.54418 10.8584 9.4156C10.8342 9.28703 10.7605 9.17309 10.6532 9.09823C10.5459 9.02338 10.4135 8.99357 10.2844 9.0152C10.1554 9.03683 10.04 9.10819 9.96295 9.21395C9.68653 9.61103 9.31818 9.93536 8.88931 10.1593C8.46044 10.3832 7.98377 10.5001 7.49995 10.5C7.01614 10.5001 6.53947 10.3832 6.1106 10.1593C5.68172 9.93536 5.31337 9.61103 5.03695 9.21395ZM5.37495 6.84995C5.60702 6.84995 5.82958 6.75777 5.99367 6.59367C6.15777 6.42958 6.24995 6.20702 6.24995 5.97495C6.24995 5.74289 6.15777 5.52033 5.99367 5.35624C5.82958 5.19214 5.60702 5.09995 5.37495 5.09995C5.14289 5.09995 4.92033 5.19214 4.75623 5.35624C4.59214 5.52033 4.49995 5.74289 4.49995 5.97495C4.49995 6.20702 4.59214 6.42958 4.75623 6.59367C4.92033 6.75777 5.14289 6.84995 5.37495 6.84995ZM10.5 5.97495C10.5 6.20702 10.4078 6.42958 10.2437 6.59367C10.0796 6.75777 9.85702 6.84995 9.62495 6.84995C9.39289 6.84995 9.17033 6.75777 9.00624 6.59367C8.84214 6.42958 8.74995 6.20702 8.74995 5.97495C8.74995 5.74289 8.84214 5.52033 9.00624 5.35624C9.17033 5.19214 9.39289 5.09995 9.62495 5.09995C9.85702 5.09995 10.0796 5.19214 10.2437 5.35624C10.4078 5.52033 10.5 5.74289 10.5 5.97495Z" fill="black"/>
</g>
<defs>
<clipPath id="clip0_982_113">
<rect width="15" height="15" fill="white"/>
</clipPath>
</defs>
</svg>
