<svg width="28" height="28" viewBox="0 0 28 28" fill="none" xmlns="http://www.w3.org/2000/svg">
<path d="M7.22174 14.4025C7.43388 14.1909 7.72128 14.072 8.02091 14.072C8.32053 14.072 8.60793 14.1909 8.82007 14.4025C8.92488 14.5071 9.00802 14.6314 9.06475 14.7683C9.12147 14.9051 9.15067 15.0517 9.15067 15.1999C9.15067 15.348 9.12147 15.4947 9.06475 15.6315C9.00802 15.7683 8.92488 15.8926 8.82007 15.9973L6.42257 18.3913C6.21251 18.6005 6.04583 18.8491 5.9321 19.1229C5.81837 19.3967 5.75982 19.6902 5.75982 19.9867C5.75982 20.2832 5.81837 20.5767 5.9321 20.8505C6.04583 21.1243 6.21251 21.3729 6.42257 21.5821C6.84686 22.0053 7.42165 22.243 8.02091 22.243C8.62016 22.243 9.19495 22.0053 9.61924 21.5821L15.2122 15.9973C15.317 15.8926 15.4002 15.7683 15.4569 15.6315C15.5136 15.4947 15.5428 15.348 15.5428 15.1999C15.5428 15.0517 15.5136 14.9051 15.4569 14.7683C15.4002 14.6314 15.317 14.5071 15.2122 14.4025C15.1073 14.2978 15.024 14.1734 14.9671 14.0365C14.9103 13.8995 14.8811 13.7527 14.8811 13.6045C14.8811 13.4562 14.9103 13.3094 14.9671 13.1725C15.024 13.0355 15.1073 12.9111 15.2122 12.8065C15.4244 12.5949 15.7118 12.476 16.0114 12.476C16.311 12.476 16.5984 12.5949 16.8106 12.8065C17.1251 13.1207 17.3745 13.4938 17.5447 13.9044C17.715 14.3151 17.8026 14.7553 17.8026 15.1999C17.8026 15.6444 17.715 16.0846 17.5447 16.4953C17.3745 16.906 17.1251 17.2791 16.8106 17.5933L11.2164 23.1781C10.3678 24.0245 9.21825 24.4998 8.01974 24.4998C6.82124 24.4998 5.67165 24.0245 4.82307 23.1781C4.40351 22.7594 4.07064 22.262 3.84353 21.7145C3.61641 21.167 3.49951 20.58 3.49951 19.9873C3.49951 19.3945 3.61641 18.8076 3.84353 18.2601C4.07064 17.7125 4.40351 17.2152 4.82307 16.7965L7.22174 14.4013V14.4025ZM20.7784 13.5975C20.5663 13.809 20.2789 13.9279 19.9792 13.9279C19.6796 13.9279 19.3922 13.809 19.1801 13.5975C19.0753 13.4928 18.9921 13.3685 18.9354 13.2317C18.8787 13.0948 18.8495 12.9482 18.8495 12.8C18.8495 12.6519 18.8787 12.5052 18.9354 12.3684C18.9921 12.2316 19.0753 12.1073 19.1801 12.0026L21.5776 9.60862C21.7876 9.39942 21.9543 9.15079 22.068 8.877C22.1818 8.60322 22.2403 8.30967 22.2403 8.0132C22.2403 7.71674 22.1818 7.42319 22.068 7.1494C21.9543 6.87562 21.7876 6.62699 21.5776 6.41779C21.1533 5.9946 20.5785 5.75695 19.9792 5.75695C19.38 5.75695 18.8052 5.9946 18.3809 6.41779L12.7891 12.0026C12.6843 12.1073 12.6011 12.2316 12.5444 12.3684C12.4877 12.5052 12.4585 12.6519 12.4585 12.8C12.4585 12.9482 12.4877 13.0948 12.5444 13.2317C12.6011 13.3685 12.6843 13.4928 12.7891 13.5975C12.8941 13.7021 12.9773 13.8265 13.0342 13.9635C13.091 14.1004 13.1203 14.2472 13.1203 14.3955C13.1203 14.5437 13.091 14.6905 13.0342 14.8275C12.9773 14.9644 12.8941 15.0888 12.7891 15.1935C12.5769 15.405 12.2895 15.5239 11.9899 15.5239C11.6903 15.5239 11.4029 15.405 11.1907 15.1935C10.8763 14.8792 10.6268 14.5061 10.4566 14.0955C10.2864 13.6848 10.1987 13.2446 10.1987 12.8C10.1987 12.3555 10.2864 11.9153 10.4566 11.5046C10.6268 11.0939 10.8763 10.7208 11.1907 10.4066L16.7849 4.82179C17.6335 3.97542 18.7831 3.50012 19.9816 3.50012C21.1801 3.50012 22.3297 3.97542 23.1782 4.82179C23.5978 5.24051 23.9307 5.73787 24.1578 6.28539C24.3849 6.83292 24.5018 7.41986 24.5018 8.01262C24.5018 8.60538 24.3849 9.19232 24.1578 9.73985C23.9307 10.2874 23.5978 10.7847 23.1782 11.2035L20.7784 13.5986V13.5975Z" fill="black" stroke="black" stroke-width="0.6"/>
</svg>
